HIERARCHY
ROOT Hips
{
  OFFSET 5.84602e-005 68.8428 3.50346
  CHANNELS 6 Xposition Yposition Zposition Zrotation Xrotation Yrotation
  JOINT Spine
  {
    OFFSET 0 8.597 -4.6522
    CHANNELS 3 Zrotation Xrotation Yrotation
    JOINT Spine1
    {
      OFFSET 0 7.8454 0.4098
      CHANNELS 3 Zrotation Xrotation Yrotation
      JOINT Spine2
      {
        OFFSET 0 9.7078 -2.1609
        CHANNELS 3 Zrotation Xrotation Yrotation
        JOINT Neck
        {
          OFFSET 0 21.8761 -0.4549
          CHANNELS 3 Zrotation Xrotation Yrotation
          JOINT Head
          {
            OFFSET 0 12.3537 3.3602
            CHANNELS 3 Zrotation Xrotation Yrotation
            End Site
            {
              OFFSET 0.0001 18.9506 0.5657
            }
          }
        }
        JOINT LeftShoulder
        {
          OFFSET 2.2086 21.1115 7.2329
          CHANNELS 3 Zrotation Xrotation Yrotation
          JOINT LeftArm
          {
            OFFSET 13.1193 3.0282 -4.8998
            CHANNELS 3 Zrotation Xrotation Yrotation
            JOINT LeftForeArm
            {
              OFFSET 27.4081 -0.0973053 -0.2375
              CHANNELS 3 Zrotation Xrotation Yrotation
              JOINT LeftHand
              {
                OFFSET 22.8641 0.0662994 -0.1369
                CHANNELS 3 Zrotation Xrotation Yrotation
                JOINT LeftHandIndex1
                {
                  OFFSET 8.8614 0.775009 2.4612
                  CHANNELS 3 Zrotation Xrotation Yrotation
                  JOINT LeftHandIndex2
                  {
                    OFFSET 3.3146 -0.808304 0.5841
                    CHANNELS 3 Zrotation Xrotation Yrotation
                    JOINT LeftHandIndex3
                    {
                      OFFSET 2.2628 -0.552002 0.3989
                      CHANNELS 3 Zrotation Xrotation Yrotation
                      End Site
                      {
                        OFFSET 1.6102 -0.4807 0.2612
                      }
                    }
                  }
                }
                JOINT LeftHandMiddle1
                {
                  OFFSET 8.9937 0.895004 0.2143
                  CHANNELS 3 Zrotation Xrotation Yrotation
                  JOINT LeftHandMiddle2
                  {
                    OFFSET 4.0984 0.0113983 -0.0242
                    CHANNELS 3 Zrotation Xrotation Yrotation
                    JOINT LeftHandMiddle3
                    {
                      OFFSET 2.2716 0.00689697 -0.0138001
                      CHANNELS 3 Zrotation Xrotation Yrotation
                      End Site
                      {
                        OFFSET 2.0404 -0.1441 0.0027
                      }
                    }
                  }
                }
                JOINT LeftHandRing1
                {
                  OFFSET 8.5234 0.597198 -2.0164
                  CHANNELS 3 Zrotation Xrotation Yrotation
                  JOINT LeftHandRing2
                  {
                    OFFSET 3.7188 -0.188293 -0.2328
                    CHANNELS 3 Zrotation Xrotation Yrotation
                    JOINT LeftHandRing3
                    {
                      OFFSET 2.1191 -0.106598 -0.1332
                      CHANNELS 3 Zrotation Xrotation Yrotation
                      End Site
                      {
                        OFFSET 1.8737 -0.2304 -0.0886
                      }
                    }
                  }
                }
                JOINT LeftHandPinky1
                {
                  OFFSET 7.9094 -0.601089 -3.4825
                  CHANNELS 3 Zrotation Xrotation Yrotation
                  JOINT LeftHandPinky2
                  {
                    OFFSET 2.2874 -0.477005 -0.6314
                    CHANNELS 3 Zrotation Xrotation Yrotation
                    JOINT LeftHandPinky3
                    {
                      OFFSET 1.6774 -0.349396 -0.4633
                      CHANNELS 3 Zrotation Xrotation Yrotation
                      End Site
                      {
                        OFFSET 1.4888 -0.4091 -0.3416
                      }
                    }
                  }
                }
                JOINT LeftHandThumb1
                {
                  OFFSET 1.833 -1.3875 1.3896
                  CHANNELS 3 Zrotation Xrotation Yrotation
                  JOINT LeftHandThumb2
                  {
                    OFFSET 3.4129 -1.121 2.5732
                    CHANNELS 3 Zrotation Xrotation Yrotation
                    JOINT LeftHandThumb3
                    {
                      OFFSET 2.2474 -0.804199 1.6192
                      CHANNELS 3 Zrotation Xrotation Yrotation
                      End Site
                      {
                        OFFSET 1.6527 -0.5689 1.1317
                      }
                    }
                  }
                }
              }
            }
          }
        }
        JOINT RightShoulder
        {
          OFFSET -2.2086 21.1115 7.2329
          CHANNELS 3 Zrotation Xrotation Yrotation
          JOINT RightArm
          {
            OFFSET -13.1216 3.0287 -4.9007
            CHANNELS 3 Zrotation Xrotation Yrotation
            JOINT RightForeArm
            {
              OFFSET -27.4081 -0.0973053 -0.2375
              CHANNELS 3 Zrotation Xrotation Yrotation
              JOINT RightHand
              {
                OFFSET -22.8641 0.0664063 -0.1369
                CHANNELS 3 Zrotation Xrotation Yrotation
                JOINT RightHandIndex1
                {
                  OFFSET -8.8614 0.774994 2.4612
                  CHANNELS 3 Zrotation Xrotation Yrotation
                  JOINT RightHandIndex2
                  {
                    OFFSET -3.3146 -0.808304 0.5841
                    CHANNELS 3 Zrotation Xrotation Yrotation
                    JOINT RightHandIndex3
                    {
                      OFFSET -2.2628 -0.552002 0.3989
                      CHANNELS 3 Zrotation Xrotation Yrotation
                      End Site
                      {
                        OFFSET -1.6102 -0.4807 0.2612
                      }
                    }
                  }
                }
                JOINT RightHandMiddle1
                {
                  OFFSET -8.9937 0.894989 0.2143
                  CHANNELS 3 Zrotation Xrotation Yrotation
                  JOINT RightHandMiddle2
                  {
                    OFFSET -4.0984 0.0113983 -0.0242
                    CHANNELS 3 Zrotation Xrotation Yrotation
                    JOINT RightHandMiddle3
                    {
                      OFFSET -2.2716 0.00691223 -0.0138001
                      CHANNELS 3 Zrotation Xrotation Yrotation
                      End Site
                      {
                        OFFSET -2.0404 -0.1441 0.0027
                      }
                    }
                  }
                }
                JOINT RightHandRing1
                {
                  OFFSET -8.5234 0.597198 -2.0164
                  CHANNELS 3 Zrotation Xrotation Yrotation
                  JOINT RightHandRing2
                  {
                    OFFSET -3.7188 -0.188309 -0.2328
                    CHANNELS 3 Zrotation Xrotation Yrotation
                    JOINT RightHandRing3
                    {
                      OFFSET -2.1191 -0.106598 -0.1332
                      CHANNELS 3 Zrotation Xrotation Yrotation
                      End Site
                      {
                        OFFSET -1.8737 -0.2304 -0.0886
                      }
                    }
                  }
                }
                JOINT RightHandPinky1
                {
                  OFFSET -7.9094 -0.601105 -3.4825
                  CHANNELS 3 Zrotation Xrotation Yrotation
                  JOINT RightHandPinky2
                  {
                    OFFSET -2.2874 -0.477005 -0.6314
                    CHANNELS 3 Zrotation Xrotation Yrotation
                    JOINT RightHandPinky3
                    {
                      OFFSET -1.6774 -0.349396 -0.4633
                      CHANNELS 3 Zrotation Xrotation Yrotation
                      End Site
                      {
                        OFFSET -1.4888 -0.4091 -0.3416
                      }
                    }
                  }
                }
                JOINT RightHandThumb1
                {
                  OFFSET -1.833 -1.38751 1.3896
                  CHANNELS 3 Zrotation Xrotation Yrotation
                  JOINT RightHandThumb2
                  {
                    OFFSET -3.41299 -1.12099 2.5732
                    CHANNELS 3 Zrotation Xrotation Yrotation
                    JOINT RightHandThumb3
                    {
                      OFFSET -2.24741 -0.804108 1.6192
                      CHANNELS 3 Zrotation Xrotation Yrotation
                      End Site
                      {
                        OFFSET -1.6527 -0.5689 1.1317
                      }
                    }
                  }
                }
              }
            }
          }
        }
      }
    }
  }
  JOINT RightUpLeg
  {
    OFFSET -9.1966 3.8861 -0.7581
    CHANNELS 3 Zrotation Xrotation Yrotation
    JOINT RightLeg
    {
      OFFSET -0.7359 -41.0265 0
      CHANNELS 3 Zrotation Xrotation Yrotation
      JOINT RightFoot
      {
        OFFSET 0 -40.2855 0
        CHANNELS 3 Zrotation Xrotation Yrotation
        JOINT RightToeBase
        {
          OFFSET 0 -5.6122 11.7359
          CHANNELS 3 Zrotation Xrotation Yrotation
          End Site
          {
            OFFSET 0 0 7.8731
          }
        }
      }
    }
  }
  JOINT LeftUpLeg
  {
    OFFSET 9.1965 3.8864 -0.7581
    CHANNELS 3 Zrotation Xrotation Yrotation
    JOINT LeftLeg
    {
      OFFSET 0.7359 -41.0268 0
      CHANNELS 3 Zrotation Xrotation Yrotation
      JOINT LeftFoot
      {
        OFFSET 0 -40.2855 0
        CHANNELS 3 Zrotation Xrotation Yrotation
        JOINT LeftToeBase
        {
          OFFSET 0 -5.6122 11.7359
          CHANNELS 3 Zrotation Xrotation Yrotation
          End Site
          {
            OFFSET 0 0 7.8731
          }
        }
      }
    }
  }
}
MOTION
Frames:	6
Frame Time:	0.0333333
5.84602e-005 68.8428 3.50346 0 0 -0 0 0 -0 0 0 -0 0 0 -0 0 0 -0 0 0 -0 0 0 -0 0 0 -0 0 0 -0 0 0 -0 0 0 -0 0 0 -0 0 0 -0 0 0 -0 -0.0146107 -8.87603e-005 -2.63497e-007 2.99804e-018 -2.42657e-020 -1.42182e-022 0 0 -0 -0.0187562 -0.001176 5.858e-005 5.06224e-018 3.88251e-019 1.21329e-020 0 0 -0 -0.012269 -0.00324817 0.000675346 -1.74678e-018 3.88251e-019 -0 0 0 -0 0 0 -0 0 0 -0 0 0 -0 0 0 -0 0 0 -0 0 0 -0 0 0 -0 0 0 -0 0 0 -0 0 0 -0 0.0149955 -9.10982e-005 2.64101e-007 -9.69331e-018 1.21329e-020 -4.7394e-023 0 0 -0 0.0189956 -0.00119102 -5.96516e-005 -5.41541e-019 0 2.42657e-020 0 0 -0 0.0122698 -0.00324857 -0.000673756 -2.00796e-019 0 -1.94126e-019 0 0 -0 0 0 -0 0 0 -0 3.39842 1.33031 -0.0637918 -5.65207e-008 0.834868 -0.000436188 -3.39935 -2.16518 -0.0642563 -8.89002e-024 -1.18485e-023 -1.48106e-024 -3.39844 1.35642 0.0640283 -3.18788e-007 0.782166 -0.000588827 3.39931 -2.13858 0.0634662 1.1399e-023 0 -0 
0.0243912 31.694 -21.031 -17.1461 -15.5427 130.975 0.191757 3.11839 -0.193578 0.394943 6.23629 -0.398321 0.39494 6.23628 -0.398307 0.000191204 0.561787 -5.29822e-005 0.244789 0.0919698 8.79779e-006 -10.2469 2.97259 -20.8593 -37.2145 -2.66883 -15.5488 2.05916 -2.36407 -32.6077 -5.71559 -1.11067 -0.305622 3.20038e-007 1.60936e-006 2.41687e-007 -2.43216e-006 2.30349e-007 1.31998e-006 3.20038e-007 1.60936e-006 2.41687e-007 3.20038e-007 1.60936e-006 2.41687e-007 -0.0146818 -8.03758e-005 -2.67004e-006 -3.18055e-015 1.2424e-016 -1.29831e-015 3.20038e-007 1.60936e-006 2.41687e-007 -0.0187662 -0.0011791 5.60283e-005 -3.18055e-015 3.23025e-016 -1.50331e-015 3.20038e-007 1.60936e-006 2.41687e-007 -0.0121382 -0.00321001 0.000662904 3.18762e-007 1.60899e-006 2.41919e-007 3.20038e-007 1.60936e-006 2.41687e-007 -2.43216e-006 2.30349e-007 1.31998e-006 3.20038e-007 1.60936e-006 2.41687e-007 27.188 5.79105 -6.72738 32.4401 41.6508 2.48739 42.4865 -45.4328 52.0471 -1.35214 -35.2011 -7.15417 4.30356e-031 -4.77083e-015 5.1684e-015 -1.81674e-009 2.21264e-006 5.1349e-007 6.62086e-032 4.77083e-015 -7.95139e-016 4.30356e-031 -4.77083e-015 5.1684e-015 0.0149952 -9.60466e-005 -2.24119e-006 6.36111e-015 0 6.36111e-015 4.30356e-031 -4.77083e-015 5.1684e-015 0.0189963 -0.00119413 -5.82027e-005 -3.18055e-015 4.77083e-015 -5.1684e-015 4.30356e-031 -4.77083e-015 5.1684e-015 0.0122816 -0.003251 -0.000669488 3.18055e-015 -3.18055e-015 5.56597e-015 4.30356e-031 -4.77083e-015 5.1684e-015 -1.81674e-009 2.21264e-006 5.1349e-007 6.62086e-032 4.77083e-015 -7.95139e-016 -41.4341 -49.9191 -60.1787 -118.71 63.4251 141.636 21.7691 36.379 -18.2449 3.06202e-006 4.40317e-006 1.40369e-008 41.3502 -49.9449 60.0867 118.742 63.4521 -141.643 -21.6518 35.9816 18.2071 -2.02091e-006 1.25077e-006 -4.02505e-007 
-0.594164 15.0088 -29.7154 8.59393 -32.2343 -164.181 0.291854 4.41921 -0.276617 0.607903 8.83694 -0.578499 0.607906 8.83696 -0.578501 -1.45322e-005 0.608027 1.43997e-005 0.354949 0.133351 4.12828e-006 -14.4085 4.64791 -30.2125 -54.2439 -3.79814 -22.5201 2.23769 -2.80141 -47.0671 -8.31547 -1.51744 -0.638288 1.59028e-015 9.54166e-015 6.36111e-015 -7.06225e-031 3.18055e-015 1.27222e-014 -2.13538e-007 4.91945e-007 6.63353e-007 1.59028e-015 9.54166e-015 6.36111e-015 -0.0146227 -8.76665e-005 -6.51128e-006 -2.13542e-007 4.91861e-007 6.63416e-007 1.59028e-015 9.54166e-015 6.36111e-015 -0.018739 -0.00117388 5.37918e-005 -2.13537e-007 4.91837e-007 6.63435e-007 1.59028e-015 9.54166e-015 6.36111e-015 -0.0122681 -0.00324596 0.000675058 -2.1352e-007 4.91875e-007 6.63412e-007 1.59028e-015 9.54166e-015 6.36111e-015 -7.06225e-031 3.18055e-015 1.27222e-014 -2.13538e-007 4.91945e-007 6.63353e-007 39.9715 8.29737 -10.2953 45.214 60.3351 4.89278 83.8018 -41.1127 85.8409 -4.95009 -50.7932 -12.463 -6.76107e-007 3.56158e-007 -3.71067e-007 1.22092e-006 -1.27074e-006 5.12485e-007 -6.1046e-007 6.35368e-007 -2.56243e-007 -6.76107e-007 3.56158e-007 -3.71067e-007 0.0150107 -9.4889e-005 -1.22205e-006 -6.76096e-007 3.56109e-007 -3.71113e-007 -6.76107e-007 3.56158e-007 -3.71067e-007 0.0190116 -0.00119562 -6.64707e-005 -6.09055e-007 6.35237e-007 -2.56347e-007 -6.76107e-007 3.56158e-007 -3.71067e-007 0.0122952 -0.00325931 -0.000680377 -6.09561e-007 6.35096e-007 -2.56344e-007 -6.76107e-007 3.56158e-007 -3.71067e-007 1.22092e-006 -1.27074e-006 5.12485e-007 -6.1046e-007 6.35368e-007 -2.56243e-007 -85.4539 -43.3094 -93.8646 -136.571 21.0597 155.471 46.7569 51.0794 -34.4938 -3.27138e-006 -4.35018e-007 -4.12735e-008 85.4042 -43.3738 93.8468 136.62 21.072 -155.5 -46.2721 50.5452 34.1519 -3.03137e-006 -5.86773e-007 4.37415e-007 
-0.615443 18.7499 -28.1645 -0.000826744 -30.7696 179.998 0.259274 3.90318 -0.261634 0.538339 7.80504 -0.542912 0.53834 7.80506 -0.542913 4.82045e-006 0.140543 -3.52596e-006 0.330472 0.124132 1.37139e-007 -14.1112 5.81746 -27.9693 -50.0261 -3.7589 -20.8559 2.3413 -2.84639 -43.3177 -7.78821 -1.22026 -0.997725 -5.69038e-007 1.00161e-006 1.25395e-006 -1.13808e-006 2.00322e-006 2.5079e-006 -2.84519e-007 5.00806e-007 6.26976e-007 -5.69038e-007 1.00161e-006 1.25395e-006 -0.0146315 -8.64841e-005 -3.43376e-006 6.96913e-007 7.22695e-007 1.01642e-006 -5.69038e-007 1.00161e-006 1.25395e-006 -0.0187407 -0.00117503 6.42251e-005 -2.84502e-007 5.00704e-007 6.27061e-007 -5.69038e-007 1.00161e-006 1.25395e-006 -0.0122631 -0.00324339 0.000675957 -2.84491e-007 5.00742e-007 6.27037e-007 -5.69038e-007 1.00161e-006 1.25395e-006 -1.13808e-006 2.00322e-006 2.5079e-006 -2.84519e-007 5.00806e-007 6.26976e-007 37.3191 7.66961 -10.5763 43.6068 56.2052 3.02667 75.3272 -43.6818 79.6746 -0.705477 -47.7902 -8.94632 -2.45493e-006 -1.06733e-006 -2.75895e-007 2.86904e-031 -2.06736e-014 7.95139e-016 -3.18055e-015 -1.27222e-014 -2.38542e-015 -2.45493e-006 -1.06733e-006 -2.75895e-007 0.0150033 -8.90591e-005 -6.9082e-007 5.73808e-031 -3.18055e-015 1.03368e-014 -2.45493e-006 -1.06733e-006 -2.75895e-007 0.0189876 -0.00118619 -5.82149e-005 6.36111e-015 1.59028e-015 7.95139e-016 -2.45493e-006 -1.06733e-006 -2.75895e-007 0.0122713 -0.00325209 -0.000680126 -2.45381e-006 -1.06767e-006 -2.75773e-007 -2.45493e-006 -1.06733e-006 -2.75895e-007 2.86904e-031 -2.06736e-014 7.95139e-016 -3.18055e-015 -1.27222e-014 -2.38542e-015 -76.8168 -45.7378 -89.0915 -134.118 30.0344 155.527 40.1024 47.6495 -30.6617 7.95139e-015 0 -0 76.7518 -45.795 89.0454 134.156 30.0558 -155.546 -39.7354 47.1416 30.4197 4.77849e-006 -2.52007e-007 -2.00002e-006 
-0.61538 18.7147 -28.4831 -0.000821703 -30.6158 179.998 0.251432 3.71672 -0.264247 0.521735 7.4323 -0.546607 0.521735 7.4323 -0.546606 -4.40498e-006 -0.23352 2.3509e-006 0.330472 0.124139 6.77701e-008 -14.5885 7.05082 -27.8246 -49.6915 -3.92029 -20.7622 2.43485 -2.91931 -42.8792 -7.82877 -1.05071 -1.35222 2.8424e-007 -5.01173e-007 -6.26844e-007 -2.8424e-007 5.01173e-007 6.26844e-007 2.8424e-007 -5.01173e-007 -6.26844e-007 2.8424e-007 -5.01173e-007 -6.26844e-007 -0.014632 -8.93476e-005 -3.81433e-006 2.84232e-007 -5.01093e-007 -6.26909e-007 2.8424e-007 -5.01173e-007 -6.26844e-007 -0.018741 -0.00117611 5.7746e-005 2.84223e-007 -5.01071e-007 -6.26929e-007 2.8424e-007 -5.01173e-007 -6.26844e-007 -0.0123298 -0.00326509 0.000676555 1.26034e-006 -2.74008e-007 -2.38663e-007 2.8424e-007 -5.01173e-007 -6.26844e-007 -2.8424e-007 5.01173e-007 6.26844e-007 2.8424e-007 -5.01173e-007 -6.26844e-007 37.4949 7.60307 -11.4596 44.414 56.2095 2.12614 75.3272 -43.6818 79.6746 1.85413 -48.0784 -7.25768 4.6346e-031 1.59028e-015 -1.66979e-014 3.18055e-015 3.18055e-015 -3.97569e-015 6.36111e-015 -3.18055e-015 -1.59028e-015 4.6346e-031 1.59028e-015 -1.66979e-014 0.0150009 -9.00792e-005 1.45753e-006 -3.18055e-015 3.18055e-015 -0 4.6346e-031 1.59028e-015 -1.66979e-014 0.0189867 -0.00119487 -6.1832e-005 0 3.18055e-015 -0 4.6346e-031 1.59028e-015 -1.66979e-014 0.0122688 -0.00325164 -0.000676607 -9.57609e-007 -1.79996e-006 5.97589e-007 4.6346e-031 1.59028e-015 -1.66979e-014 3.18055e-015 3.18055e-015 -3.97569e-015 6.36111e-015 -3.18055e-015 -1.59028e-015 -76.3912 -45.1737 -88.6909 -133.866 30.1474 155.443 39.6503 47.5877 -30.4219 -2.34722e-007 -2.76829e-007 -7.70055e-007 76.3249 -45.2271 88.6407 133.899 30.1725 -155.459 -39.2866 47.0808 30.1792 2.38376e-007 -2.77111e-007 7.68945e-007 
-0.615319 18.6795 -28.8016 -0.000816691 -30.4624 179.998 0.243502 3.52996 -0.266767 0.504946 7.05867 -0.550166 0.504946 7.05868 -0.550166 4.66105e-007 -0.607848 9.8618e-008 0.330472 0.124137 5.33304e-007 -15.0712 8.28523 -27.6688 -49.3565 -4.08113 -20.6675 2.52898 -2.99153 -42.4404 -7.86829 -0.880893 -1.70665 3.18055e-015 -6.36111e-015 7.95139e-015 5.29669e-031 -3.18055e-015 9.54166e-015 1.59028e-015 -6.36111e-015 4.77083e-015 3.18055e-015 -6.36111e-015 7.95139e-015 -0.0145848 -9.097e-005 4.74953e-006 4.77083e-015 3.18055e-015 -0 3.18055e-015 -6.36111e-015 7.95139e-015 -0.0187841 -0.00117738 6.35458e-005 3.53113e-031 -3.18055e-015 6.36111e-015 3.18055e-015 -6.36111e-015 7.95139e-015 -0.012282 -0.00324946 0.000676046 0 6.36111e-015 -0 3.18055e-015 -6.36111e-015 7.95139e-015 5.29669e-031 -3.18055e-015 9.54166e-015 1.59028e-015 -6.36111e-015 4.77083e-015 37.6697 7.5338 -12.3432 45.2215 56.2068 1.22531 75.3272 -43.6818 79.6746 4.4474 -48.3162 -5.53696 -1.28483e-006 6.5041e-007 -8.428e-007 1.28483e-006 -6.5041e-007 8.428e-007 -1.28483e-006 6.5041e-007 -8.428e-007 -1.28483e-006 6.5041e-007 -8.428e-007 0.0149891 -8.8902e-005 3.88742e-006 -1.28478e-006 6.50299e-007 -8.42884e-007 -1.28483e-006 6.5041e-007 -8.428e-007 0.0189944 -0.00119012 -5.62343e-005 -1.79971e-007 2.10294e-006 -1.01374e-006 -1.28483e-006 6.5041e-007 -8.428e-007 0.012264 -0.00324594 -0.000678759 -1.28481e-006 6.50302e-007 -8.42836e-007 -1.28483e-006 6.5041e-007 -8.428e-007 1.28483e-006 -6.5041e-007 8.428e-007 -1.28483e-006 6.5041e-007 -8.428e-007 -75.9751 -44.6076 -88.3 -133.615 30.26 155.359 39.1996 47.5247 -30.1835 1.37458e-006 -6.92659e-007 1.00099e-007 75.9077 -44.6572 88.2458 133.641 30.2888 -155.371 -38.8391 47.0189 29.9401 2.82154e-006 3.32988e-006 1.55002e-007 
